# xmcd
#
# Track frame offsets:
#	150
#	14178
#	32598
#	47823
#	63344
#	78808
#	95217
#	109216
#	127574
#	142745
#	158288
#	173789
#
# Disc length: 2535 seconds
#
# Revision: 1
# Processed by: cddbd v1.4PL0 Copyright (c) Steve Scherf et al.
# Submitted via: EasyCDDAExtractor 5.1.0
#
DISCID=8d09e50c
DTITLE=Pam Tillis - Artis Series Vol 142 #20142
DYEAR=1900
DGENRE=Country
TTITLE0=Mi Vida Loca (My Crazy Life) w/vocal
TTITLE1=Maybe It Was Minneapolis w/vocal
TTITLE2=Don't Tell Me What To Do w/vocal
TTITLE3=Cleopatra, Queen of Denial w/vocal
TTITLE4=Shake The Sugar Tree w/vocal
TTITLE5=Let That Pony Run w/vocal
TTITLE6=Mi Vida Loca (My Crazy Life)
TTITLE7=Maybe It Was Minneapolis
TTITLE8=Don't Tell Me What To Do
TTITLE9=Cleopatra, Queen of Denial
TTITLE10=Shake The Sugar Tree
TTITLE11=Let That Pony Run
EXTD=
EXTT0=
EXTT1=
EXTT2=
EXTT3=
EXTT4=
EXTT5=
EXTT6=
EXTT7=
EXTT8=
EXTT9=
EXTT10=
EXTT11=
PLAYORDER=
